<?xml version="1.0" standalone="no"?>
<svg viewBox="0 0 200 200" xmlns="http://www.w3.org/2000/svg">
  <path fill="#F1C21B" d="M25.5,-43.4C37.2,-37.4,53.8,-39,64.6,-33C75.5,-27.1,80.6,-13.5,77.9,-1.5C75.2,10.4,64.7,20.9,58.2,34.3C51.7,47.7,49,64.1,40,73.9C30.9,83.7,15.5,87.1,-0.1,87.2C-15.6,87.3,-31.1,84.1,-37.6,72.7C-44,61.3,-41.2,41.8,-48.9,28.3C-56.7,14.8,-74.9,7.4,-77.5,-1.5C-80.1,-10.3,-66.9,-20.7,-57.2,-30.7C-47.4,-40.8,-41.1,-50.5,-32.1,-58.1C-23.2,-65.6,-11.6,-71,-2.3,-66.9C6.9,-62.9,13.8,-49.3,25.5,-43.4Z" transform="translate(100 100)" />
</svg>
